<svg width="112" height="16" viewBox="0 0 112 16" fill="none" xmlns="http://www.w3.org/2000/svg">
<path fill-rule="evenodd" clip-rule="evenodd" d="M7.47141 0L9.55802 5.31749L15.0101 5.78866L10.8369 9.49072L12.1158 15.0774L7.47141 12.1158L2.89433 15.0774L4.17322 9.49072L0 5.78866L5.45211 5.31749L7.47141 0Z" fill="white"/>
<path fill-rule="evenodd" clip-rule="evenodd" d="M31.7214 0L33.808 5.31749L39.2601 5.78866L35.0869 9.49072L36.3658 15.0774L31.7214 12.1158L27.1443 15.0774L28.4232 9.49072L24.25 5.78866L29.7021 5.31749L31.7214 0Z" fill="white"/>
<path fill-rule="evenodd" clip-rule="evenodd" d="M55.9675 0L58.0541 5.31749L63.5062 5.78866L59.333 9.49072L60.6119 15.0774L55.9675 12.1158L51.3904 15.0774L52.6693 9.49072L48.4961 5.78866L53.9482 5.31749L55.9675 0Z" fill="white"/>
<path fill-rule="evenodd" clip-rule="evenodd" d="M80.2175 0L82.3041 5.31749L87.7562 5.78866L83.583 9.49072L84.8619 15.0774L80.2175 12.1158L75.6404 15.0774L76.9193 9.49072L72.7461 5.78866L78.1982 5.31749L80.2175 0Z" fill="white"/>
<path fill-rule="evenodd" clip-rule="evenodd" d="M104.46 0L106.546 5.31749L111.998 5.78866L107.825 9.49072L109.104 15.0774L104.46 12.1158L99.8826 15.0774L101.162 9.49072L96.9883 5.78866L102.44 5.31749L104.46 0Z" fill="white"/>
</svg>
